<svg xmlns="http://www.w3.org/2000/svg" viewBox="0 0 51.023998 38.394001" class="ubilabs-symbol-module__symbol__210br" fill="currentColor"><title>Ubilabs</title><path d="M 50.4677,1e-6 H 14.421562 c -0.359703,0 -0.651237,0.291744 -0.651237,0.651447 v 7.034969 c 0,0.359707 0.291534,0.651447 0.651237,0.651447 h 22.159157 c 0.08495,0 0.12764,0.102776 0.06776,0.162449 L 16.857239,28.431622 C 14.61364,30.662785 12.20718,29.999737 11.471607,29.717938 10.73645,29.434483 8.337242,28.269169 8.337242,25.152836 V 0.651448 C 8.337242,0.291745 8.045708,0 7.686005,0 H 0.651447 C 0.291744,0 0,0.291745 0,0.651448 v 23.989181 c 0,4.593285 2.078667,9.107003 5.950054,11.578522 2.308659,1.47197 4.837578,2.174805 7.318005,2.174805 3.620674,0 6.901947,-1.574745 9.703544,-4.294907 L 42.523521,14.414723 c 0.06009,-0.05967 0.163277,-0.01657 0.163277,0.06796 v 22.104461 c 0,0.359703 0.29174,0.651444 0.651444,0.651444 h 7.033938 c 0.35991,0 0.65144,-0.291741 0.65144,-0.651444 V 0.556965 C 51.02362,0.250306 50.77457,1e-6 50.4677,1e-6 Z"></path></svg>